<svg width="734" height="640" viewBox="0 0 734 640" fill="none" xmlns="http://www.w3.org/2000/svg" xmlns:xlink="http://www.w3.org/1999/xlink">
<rect width="734" height="640" fill="url(#pattern0)"/>
<defs>
<pattern id="pattern0" patternContentUnits="objectBoundingBox" width="1" height="1">
<use xlink:href="#image0" transform="translate(-0.00408719) scale(0.0013624 0.0015625)"/>
</pattern>
<image id="image0" width="740" height="640" xlink:href="img/home.png"/>
</defs>
<path d="M222 526.377L442.8 536.309L512 519.3V546.242L443.5 570.7L222 557.043V526.377Z" fill="#3595F6" fill-opacity="0.75"/>
<path d="M223 531.576V499L443.3 503.3L513 499V525.061L443.7 542L223 531.576Z" fill="#3595F6" fill-opacity="0.75"/>
<path d="M223 506.333V473H444H513V503.667L445 513L223 506.333Z" fill="#3595F6" fill-opacity="0.75"/>
<path d="M223 484V450.289L444.3 445.3L512 454.334V484H444" fill="#3595F6" fill-opacity="0.75"/>
<path d="M223 457.071V423.022L444.5 418.7L513 433.106V461L444 452.226L223 457.071Z" fill="#3595F6" fill-opacity="0.75"/>
<path d="M222 429.126V400.077L443 385L514 413.192V439.3L443 424.223L222 429.126Z" fill="#3595F6" fill-opacity="0.75"/>
<path d="M222 407.377V377.306L444.2 357.7L514 392.101V417L443.7 390.898L222 407.377Z" fill="#3595F6" fill-opacity="0.75"/>
<path d="M222 381.906V352.543L444.5 328.7L514 371.687V396L442 362.291L222 381.906Z" fill="#3595F6" fill-opacity="0.75"/>
<path d="M222 355.412V327.76L445 299.3L514 349.997V375L444.7 331.216L222 355.412Z" fill="#3595F6" fill-opacity="0.75"/>
<path d="M222 330.35V303.003L444.5 270.3L514 328.413V352L443.7 303.8L222 330.35Z" fill="#3595F6" fill-opacity="0.75"/>
<path d="M221 306.215V279.177L443.3 242L514 308.806V331L444 273.882L221 306.215Z" fill="#3595F6" fill-opacity="0.75"/>
<path d="M222 280.941V254.118L443.2 215L513 286.529V310L444.3 244.841L222 280.941Z" fill="#3595F6" fill-opacity="0.75"/>
<path d="M222 256.923V229.176L444.3 187L513 265.025V288L444 216.967L222 256.923Z" fill="#3595F6" fill-opacity="0.75"/>
<path d="M222 230.755V203.297L442.8 155.3L513 242.068V267L444 186.493L222 230.755Z" fill="#3595F6" fill-opacity="0.75"/>
<path d="M223 206.759V179.444L443 127L513 219.87V245L442.3 158.357L223 206.759Z" fill="#3595F6" fill-opacity="0.75"/>
<path d="M222 181.696V154.522L441.8 98L513 198.326V223L443.3 129.196L222 181.696Z" fill="#3595F6" fill-opacity="0.75"/>
<path d="M222 156.74V128.621L444 67.3L513 177.288V200L443.7 100.826L222 156.74Z" fill="#3595F6" fill-opacity="0.75"/>

</svg>
